/* XPM */
static char * zamia_xpm[] = {
"16 16 80 1",
" 	c None",
".	c #000000",
"+	c #010105",
"@	c #02020A",
"#	c #03030B",
"$	c #060614",
"%	c #060616",
"&	c #070719",
"*	c #07071B",
"=	c #07071D",
"-	c #090923",
";	c #0A0A24",
">	c #0D0D31",
",	c #0E0E32",
"'	c #0F0F37",
")	c #12123E",
"!	c #161648",
"~	c #191951",
"{	c #191953",
"]	c #1D1D5B",
"^	c #202062",
"/	c #212163",
"(	c #222266",
"_	c #242468",
":	c #24246A",
"<	c #26266E",
"[	c #282872",
"}	c #2A2A74",
"|	c #2B2B79",
"1	c #2D2D7B",
"2	c #2323D9",
"3	c #2F2F7F",
"4	c #2323E1",
"5	c #2525D3",
"6	c #303080",
"7	c #2727CB",
"8	c #313181",
"9	c #313183",
"0	c #2A2AC0",
"a	c #2626E2",
"b	c #2B2BBD",
"c	c #2C2CB8",
"d	c #2F2FAB",
"e	c #2E2EB4",
"f	c #2929E3",
"g	c #3131A3",
"h	c #3030AC",
"i	c #343492",
"j	c #33339B",
"k	c #33339D",
"l	c #343496",
"m	c #2F2FE7",
"n	c #3434E8",
"o	c #3535EB",
"p	c #3F3FEF",
"q	c #4B4BF3",
"r	c #5252F4",
"s	c #5656F6",
"t	c #5858F6",
"u	c #5F5FF7",
"v	c #6161F7",
"w	c #6363F7",
"x	c #6A6AF8",
"y	c #7171F9",
"z	c #7979FB",
"A	c #8383FB",
"B	c #8888FC",
"C	c #8E8EFC",
"D	c #9090FC",
"E	c #9292FC",
"F	c #9A9AFC",
"G	c #ABABFD",
"H	c #AFAFFD",
"I	c #B1B1FD",
"J	c #B3B3FD",
"K	c #B5B5FD",
"L	c #C7C7FD",
"M	c #D1D1FD",
"N	c #D7D7FD",
"O	c #D9D9FD",
"                ",
"                ",
"         m|6bs  ",
"      ohi@+.$19}",
"    ngae.;)_   z",
" LG407h&[<x    K",
"EmHtl^=j8q      ",
":vF>e.}d8       ",
"kO1(,~yfI       ",
"35%.#wcB        ",
"p$*!a2rI        ",
"H/.]{Al         ",
" .   [J         ",
"u-   CD         ",
"'v              ",
"                "};
